HIERARCHY
ROOT Hips
{
	OFFSET 0.000000 0.000000 0.000000
	CHANNELS 6 Xposition Yposition Zposition Zrotation Yrotation Xrotation 
	JOINT LHipJoint
	{
		OFFSET 0.000000 0.000000 0.000000
		CHANNELS 3 Zrotation Yrotation Xrotation
		JOINT LeftUpLeg
		{
			OFFSET 1.363060 -1.794630 0.839290
			CHANNELS 3 Zrotation Yrotation Xrotation
			JOINT LeftLeg
			{
				OFFSET 2.448110 -6.726130 0.000000
				CHANNELS 3 Zrotation Yrotation Xrotation
				JOINT LeftFoot
				{
					OFFSET 2.562200 -7.039590 0.000000
					CHANNELS 3 Zrotation Yrotation Xrotation
					JOINT LeftToeBase
					{
						OFFSET 0.157640 -0.433110 2.322550
						CHANNELS 3 Zrotation Yrotation Xrotation
						End Site
						{
							OFFSET 0.000000 0.000000 0.000000
						}
					}
				}
			}
		}
	}
	JOINT RHipJoint
	{
		OFFSET 0.000000 0.000000 0.000000
		CHANNELS 3 Zrotation Yrotation Xrotation
		JOINT RightUpLeg
		{
			OFFSET -1.305520 -1.794630 0.839290
			CHANNELS 3 Zrotation Yrotation Xrotation
			JOINT RightLeg
			{
				OFFSET -2.542530 -6.985550 0.000000
				CHANNELS 3 Zrotation Yrotation Xrotation
				JOINT RightFoot
				{
					OFFSET -2.568260 -7.056230 0.000000
					CHANNELS 3 Zrotation Yrotation Xrotation
					JOINT RightToeBase
					{
						OFFSET -0.164730 -0.452590 2.363150
						CHANNELS 3 Zrotation Yrotation Xrotation
						End Site
						{
							OFFSET 0.000000 0.000000 0.000000
						}
					}
				}
			}
		}
	}
	JOINT LowerBack
	{
		OFFSET 0.000000 0.000000 0.000000
		CHANNELS 3 Zrotation Yrotation Xrotation
		JOINT Spine
		{
			OFFSET 0.028270 2.035590 -0.193380
			CHANNELS 3 Zrotation Yrotation Xrotation
			JOINT Spine1
			{
				OFFSET 0.056720 2.048850 -0.042750
				CHANNELS 3 Zrotation Yrotation Xrotation
				JOINT Neck
				{
					OFFSET 0.000000 0.000000 0.000000
					CHANNELS 3 Zrotation Yrotation Xrotation
					JOINT Neck1
					{
						OFFSET -0.054170 1.746240 0.172020
						CHANNELS 3 Zrotation Yrotation Xrotation
						JOINT Head
						{
							OFFSET 0.104070 1.761360 -0.123970
							CHANNELS 3 Zrotation Yrotation Xrotation
							End Site
							{
								OFFSET 0.000000 0.000000 0.000000
							}
						}
					}
				}
				JOINT LeftShoulder
				{
					OFFSET 0.000000 0.000000 0.000000
					CHANNELS 3 Zrotation Yrotation Xrotation
					JOINT LeftArm
					{
						OFFSET 3.362410 1.200890 -0.311210
						CHANNELS 3 Zrotation Yrotation Xrotation
						JOINT LeftForeArm
						{
							OFFSET 4.983000 -0.000000 -0.000000
							CHANNELS 3 Zrotation Yrotation Xrotation
							JOINT LeftHand
							{
								OFFSET 3.483560 -0.000000 -0.000000
								CHANNELS 3 Zrotation Yrotation Xrotation
								JOINT LeftFingerBase
								{
									OFFSET 0.000000 0.000000 0.000000
									CHANNELS 3 Zrotation Yrotation Xrotation
									JOINT LeftHandIndex1
									{
										OFFSET 0.715260 -0.000000 -0.000000
										CHANNELS 3 Zrotation Yrotation Xrotation
										End Site
										{
											OFFSET 0.000000 0.000000 0.000000
										}
									}
								}
								JOINT LThumb
								{
									OFFSET 0.000000 0.000000 0.000000
									CHANNELS 3 Zrotation Yrotation Xrotation
									End Site
									{
										OFFSET 0.000000 0.000000 0.000000
									}
								}
							}
						}
					}
				}
				JOINT RightShoulder
				{
					OFFSET 0.000000 0.000000 0.000000
					CHANNELS 3 Zrotation Yrotation Xrotation
					JOINT RightArm
					{
						OFFSET -3.136600 1.374050 -0.404650
						CHANNELS 3 Zrotation Yrotation Xrotation
						JOINT RightForeArm
						{
							OFFSET -5.241900 -0.000000 -0.000000
							CHANNELS 3 Zrotation Yrotation Xrotation
							JOINT RightHand
							{
								OFFSET -3.444170 -0.000000 -0.000000
								CHANNELS 3 Zrotation Yrotation Xrotation
								JOINT RightFingerBase
								{
									OFFSET 0.000000 0.000000 0.000000
									CHANNELS 3 Zrotation Yrotation Xrotation
									JOINT RightHandIndex1
									{
										OFFSET -0.622530 -0.000000 -0.000000
										CHANNELS 3 Zrotation Yrotation Xrotation
										End Site
										{
											OFFSET 0.000000 0.000000 0.000000
										}
									}
								}
								JOINT RThumb
								{
									OFFSET 0.000000 0.000000 0.000000
									CHANNELS 3 Zrotation Yrotation Xrotation
									End Site
									{
										OFFSET 0.000000 0.000000 0.000000
									}
								}
							}
						}
					}
				}
			}
		}
	}
}
MOTION
Frames: 12
Frame Time: 0.008333
7.941374 13.652197 13.382407 4.100784 -10.205907 15.455588 3.334117 -0.481911 -3.725282 -3.959205 20.471651 -71.352436 17.383524 20.653657 81.450914 1.480055 -17.704850 -1.190080 0.929200 -6.140700 -17.193200 -3.806933 -0.604191 -0.667475 6.771741 10.374816 -82.564803 -20.202179 -21.206071 91.038860 -1.482853 7.999593 -9.163685 -0.312000 -3.591000 9.928800 -4.602500 -3.172838 18.489525 1.168871 -4.665296 -3.264701 3.207641 -2.362029 2.260880 -3.125597 4.547265 -12.940240 2.887409 6.446183 7.171879 0.540200 3.256200 3.376300 4.034071 -11.475536 1.697031 -84.079496 -23.295198 43.688269 24.307223 -29.510703 -7.613203 -1.010539 -1.025137 -16.456435 31.621658 48.426947 25.780900 -7.125000 0.000000 0.000000 -29.108000 82.350500 -25.170300 -3.877914 12.476222 5.911847 77.472669 -28.716057 -18.219099 -18.351617 18.764119 -3.418767 -1.318212 -1.827804 -4.735169 -16.987457 12.626655 -3.993500 7.125000 0.000000 0.000000 8.124700 -15.021500 5.800800 
8.060068 13.141868 13.375431 4.106602 -10.863239 15.547664 3.403955 -0.403783 -3.705708 -4.609272 21.985450 -74.937387 19.363119 20.801981 86.968697 1.730474 -15.952284 -6.067257 0.839200 -5.843600 -16.331200 -3.785684 -0.657413 -0.636006 5.418370 10.480531 -86.178734 -21.950958 -21.117141 95.961805 -1.744618 9.232000 -10.673678 -0.392600 -4.023400 11.142500 -4.373224 -3.377009 18.673978 1.202880 -4.912067 -3.276283 3.104763 -2.483142 2.110344 -3.221941 4.872891 -12.869435 2.648874 6.904883 6.733155 0.466200 3.469400 3.146800 3.995754 -11.544931 1.661809 -85.757642 -22.581192 41.402727 22.371009 -27.414643 -6.701104 -1.046823 -1.083365 -16.380685 32.175385 49.058006 26.516100 -7.125000 0.000000 0.000000 -31.809600 83.053200 -27.958100 -3.905210 12.507271 5.883067 78.001591 -27.923631 -19.900050 -18.240950 18.750170 -3.464615 -1.300073 -1.887539 -5.324972 -18.016220 12.593572 -4.280600 7.125000 0.000000 0.000000 7.428200 -14.896400 5.314600 
8.181463 12.541534 13.391182 3.787156 -11.573935 15.488571 3.481092 -0.301354 -3.672799 -4.797527 23.941818 -79.096932 21.595174 20.743267 93.226167 2.088278 -16.073401 -10.751534 0.987500 -6.325100 -17.730600 -3.783807 -0.726003 -0.606762 4.160419 10.736847 -90.193305 -23.823287 -20.858379 101.290185 -1.941378 10.091882 -11.644389 -0.426600 -4.192000 11.617500 -4.012068 -3.546266 19.057170 1.271971 -5.085723 -3.278001 3.158179 -2.579451 1.894255 -3.248172 5.223178 -12.764540 2.410129 7.380516 6.230026 0.358200 3.692400 2.893900 3.991412 -11.618328 1.640550 -87.103102 -21.922337 38.746234 20.800703 -25.649126 -6.009432 -1.082096 -1.122271 -16.847241 33.037205 49.050903 27.294000 -7.125000 0.000000 0.000000 -30.065600 83.448400 -26.620800 -3.915010 12.536900 5.848619 78.270311 -26.936549 -21.473012 -17.786701 18.368102 -3.421746 -1.326168 -1.917619 -5.789408 -19.006886 12.954638 -4.662600 7.125000 0.000000 0.000000 6.792700 -14.392400 4.926500 
8.300044 11.929050 13.400408 3.189589 -12.324921 15.056956 3.545994 -0.189411 -3.634194 -3.604985 26.068072 -82.603937 23.787984 20.452722 99.534068 2.284614 -16.645060 -13.195118 0.848200 -5.874100 -16.419700 -3.798780 -0.793052 -0.594787 3.282495 11.073523 -93.997772 -25.639137 -20.437702 106.559316 -2.061362 10.354789 -12.338726 -0.344500 -3.771500 10.434600 -3.585446 -3.697975 19.861766 1.363651 -5.215095 -3.238544 3.332101 -2.671216 1.666490 -3.177866 5.628777 -12.651586 2.175349 7.912692 5.695363 0.215700 3.944200 2.643000 4.011459 -11.681278 1.655168 -87.952419 -21.400306 35.696312 19.694774 -24.399297 -5.586586 -1.057773 -1.216340 -17.869791 32.266801 50.560964 27.166800 -7.125000 0.000000 0.000000 -42.663800 84.009000 -38.441200 -3.909426 12.551067 5.800973 78.354641 -25.604757 -23.313050 -17.188713 17.799270 -3.264756 -1.310137 -1.904109 -6.032437 -19.133052 12.820326 -4.654000 7.125000 0.000000 0.000000 6.696800 -14.538300 4.835000 
8.426839 11.315215 13.401083 2.700461 -13.057955 14.112768 3.592992 -0.079999 -3.589280 -1.717373 28.446050 -85.428675 25.907341 19.940650 105.793128 2.356584 -18.385445 -14.230928 0.759100 -5.564300 -15.525200 -3.808291 -0.846696 -0.599527 2.437861 11.112344 -97.278631 -27.346653 -19.875327 111.633068 -2.182679 10.626156 -12.983140 -0.259700 -3.278500 9.055000 -3.233275 -3.869035 21.167922 1.446839 -5.376159 -3.168811 3.542196 -2.784026 1.352890 -3.205242 6.015576 -12.438851 1.939565 8.421801 5.129358 0.094300 4.184400 2.353600 4.012283 -11.762920 1.692449 -88.318174 -21.203113 32.715488 18.886739 -23.448480 -5.269354 -1.092061 -1.220011 -19.403816 35.595339 49.430143 29.719000 -7.125000 0.000000 0.000000 -27.155400 84.885200 -24.728800 -3.897697 12.570055 5.759387 78.945241 -24.450258 -24.951078 -17.387692 18.036912 -3.293270 -1.213919 -1.930795 -7.073686 -19.063514 12.193805 -4.459400 7.125000 0.000000 0.000000 6.688500 -15.187800 4.735500 
8.553634 10.709818 13.400633 2.982736 -13.880620 12.687257 3.632403 0.037853 -3.529639 -0.896765 31.250845 -87.859910 27.836617 19.267774 111.637041 2.508117 -20.079432 -15.897739 0.888400 -6.008100 -16.807900 -3.786491 -0.876641 -0.615360 0.939497 10.696767 -100.239834 -28.917841 -19.198630 116.441595 -2.333677 11.237959 -13.519213 -0.266400 -3.320300 9.171800 -3.615309 -3.986262 22.735527 1.481046 -5.600381 -3.103242 3.910533 -2.930701 0.926758 -3.374119 6.338373 -11.986379 1.710888 8.837848 4.482016 -0.015600 4.381700 1.946200 3.969037 -11.863174 1.755488 -88.212421 -21.528313 30.050576 17.815403 -22.186995 -4.946339 -1.038674 -1.350391 -20.537340 34.541970 51.995917 29.705100 -7.125000 0.000000 0.000000 -56.225500 85.652800 -52.529500 -3.882623 12.591251 5.738983 80.080033 -23.731320 -25.752170 -18.405802 19.135247 -3.592657 -1.154705 -1.975914 -9.779294 -19.046498 12.715102 -4.603200 7.125000 0.000000 0.000000 6.732700 -14.661800 4.843500 
8.681778 10.126473 13.393320 4.023003 -14.733688 10.638969 3.678882 0.167078 -3.462869 -1.132362 34.475362 -89.738710 29.575669 18.479721 117.061333 2.739432 -21.700338 -18.042714 0.926800 -6.133000 -17.170700 -3.739352 -0.882292 -0.652182 -1.048880 9.748506 -102.843380 -30.350467 -18.432565 121.007576 -2.450091 11.898600 -13.655480 -0.267000 -3.324300 9.183000 -4.632780 -4.023109 24.672118 1.461397 -5.880046 -3.013701 4.321887 -3.113173 0.484540 -3.442504 6.594173 -11.457150 1.421155 9.145398 3.701493 -0.196300 4.524100 1.470500 3.910499 -11.957801 1.861800 -87.296791 -22.872767 26.866341 16.732598 -20.856640 -4.646032 -1.005909 -1.453529 -22.229173 35.966028 53.471507 31.508100 -7.125000 0.000000 0.000000 -79.955400 86.361200 -76.345600 -3.882054 12.605119 5.716810 81.223380 -22.901173 -26.477942 -19.270536 20.098262 -3.878750 -1.185630 -1.963492 -12.484554 -18.615930 14.364781 -4.915600 7.125000 0.000000 0.000000 7.138600 -13.094100 5.378600 
8.804860 9.545040 13.391970 4.964463 -15.607951 7.847269 3.736927 0.324842 -3.369971 -1.136580 38.987749 -91.027126 31.190091 17.580282 122.235163 3.001015 -23.668320 -20.348975 0.950800 -6.209500 -17.393600 -3.720913 -0.885734 -0.719918 -2.591385 8.788512 -104.774595 -31.672091 -17.586115 125.435747 -2.506823 12.248994 -13.525341 -0.174000 -2.687200 7.409000 -5.572764 -3.968633 27.127310 1.445841 -6.072775 -2.868337 4.776610 -3.274264 0.085567 -3.427936 6.832188 -11.025730 1.055234 9.430912 3.001491 -0.428100 4.649200 1.093000 3.865563 -12.044277 2.005823 -85.573235 -24.631706 24.121870 15.770882 -19.623882 -4.380004 -1.014717 -1.496474 -24.957864 40.569455 52.644340 35.509000 -7.125000 0.000000 0.000000 -90.264500 -88.429100 91.836100 -3.866794 12.604057 5.687817 82.120488 -22.013337 -27.257257 -19.759737 20.653072 -4.038380 -1.088100 -2.027183 -14.580327 -18.956527 14.033070 -4.935600 7.125000 0.000000 0.000000 6.888600 -13.366200 5.147600 
8.947294 8.935818 13.396583 4.810709 -16.731060 5.355659 3.759146 0.509179 -3.215630 -0.571504 45.873671 -93.873682 32.763588 16.492213 127.546992 3.122879 -26.653632 -22.125405 0.903300 -6.056700 -16.949100 -3.741323 -0.939630 -0.792094 -3.122040 8.446615 -107.084931 -32.822331 -16.711231 129.555079 -2.473176 12.214503 -12.925219 -0.080400 -1.828900 5.033000 -5.211447 -3.968845 29.234867 1.498487 -6.018003 -2.730325 4.997792 -3.300425 -0.308994 -3.406956 7.067912 -10.620218 0.581012 9.725692 2.413066 -0.676700 4.776900 0.787900 3.858536 -12.128889 2.159387 -83.446888 -26.426589 21.848153 15.304234 -18.957357 -4.298991 -0.893001 -1.613875 -30.702778 45.392902 52.514320 40.081100 -7.125000 0.000000 0.000000 173.659300 -88.233700 -173.857400 -3.823247 12.605337 5.675265 82.806548 -21.475758 -27.676488 -20.244072 21.202715 -4.227825 -0.880745 -2.171349 -16.772822 -20.316660 12.283702 -4.852500 7.125000 0.000000 0.000000 5.854800 -14.878700 4.177400 
9.094789 8.338972 13.404008 4.544001 -17.709072 2.678755 3.710629 0.687620 -3.029377 -0.619898 54.410062 -97.738827 34.159421 15.313123 132.562772 3.130739 -30.554167 -23.837862 0.794400 -5.689100 -15.884900 -3.747094 -0.991054 -0.886549 -3.417139 7.795193 -109.146663 -33.823069 -15.822899 133.374062 -2.424854 12.385862 -11.990036 -0.052500 -1.479300 4.068600 -4.378437 -4.026399 31.221277 1.559100 -5.878270 -2.552239 5.009870 -3.297403 -0.432794 -3.398698 7.151107 -10.642967 0.229518 9.849981 1.926962 -0.827300 4.821700 0.618800 3.856389 -12.169354 2.336026 -80.506089 -28.848337 19.239823 14.859426 -18.250087 -4.222307 -0.776089 -1.724975 -35.330284 45.178848 53.255199 40.170700 -7.125000 0.000000 0.000000 -175.743600 -87.721600 175.916000 -3.784074 12.580055 5.643555 83.659033 -21.000352 -28.550033 -20.736427 21.799431 -4.457992 -0.786743 -2.248145 -18.559045 -21.382520 11.893519 -5.042400 7.125000 0.000000 0.000000 5.109300 -15.096300 3.616900 
9.241723 7.754051 13.424597 5.173026 -18.197116 -0.551131 3.583179 0.846231 -2.826695 -2.638611 63.360531 -102.681220 35.350436 14.076944 137.194450 3.234037 -34.292433 -26.256113 0.722400 -5.430900 -15.141700 -3.681274 -1.001130 -0.982659 -4.230174 5.653648 -111.094884 -34.743505 -14.877370 137.111623 -2.415304 13.140371 -10.861229 -0.029700 -1.112000 3.057100 -4.184776 -4.282169 32.775744 1.621182 -6.145968 -2.403263 5.301356 -3.496895 -0.420465 -3.597533 7.248212 -10.200783 0.064875 9.966031 1.578721 -0.891500 4.883200 0.305900 3.826634 -12.158512 2.532480 -76.760378 -31.302920 14.905516 15.562816 -18.987758 -4.492615 -0.628080 -1.798252 -39.389466 48.006671 53.992820 43.216300 -7.125000 0.000000 0.000000 173.971100 -85.934600 -174.412800 -3.755695 12.482965 5.653127 84.084434 -20.884532 -29.878619 -20.972245 22.081186 -4.622111 -0.716287 -2.319749 -19.893611 -22.832796 11.546596 -5.346400 7.125000 0.000000 0.000000 4.105500 -15.215500 2.891600 
9.380330 7.221333 13.478037 6.425806 -18.852075 -5.072585 3.407908 0.992082 -2.619029 -4.734273 73.849127 -106.634876 36.328557 12.866674 141.176854 3.726659 -37.972040 -30.381982 0.703200 -5.359800 -14.937600 -3.607457 -0.953157 -1.124973 -5.172343 3.176009 -111.505798 -35.544222 -13.958828 140.522946 -2.497217 14.433124 -10.236384 -0.004400 -0.428800 1.178200 -4.594025 -4.353086 34.796112 1.644989 -6.353818 -2.167345 5.723837 -3.730412 -0.056882 -3.703718 7.284470 -10.410747 -0.057728 10.047924 1.451656 -0.945100 4.914900 0.278900 3.793278 -12.090575 2.710056 -72.262924 -33.963128 10.074647 15.842058 -19.161584 -4.623668 -0.468721 -1.882323 -44.543287 45.740843 54.924101 41.327100 -7.125000 0.000000 0.000000 -169.762100 -86.089500 170.480000 -3.699952 12.345304 5.651972 84.043077 -20.653678 -31.977214 -20.855634 21.982346 -4.700214 -0.592793 -2.412662 -20.755723 -25.224946 10.156029 -5.502200 7.125000 0.000000 0.000000 2.356000 -16.275100 1.602700 
